<?xml version="1.0" encoding="UTF-8"?>
<svg id="Capa_1" data-name="Capa 1" xmlns="http://www.w3.org/2000/svg" viewBox="0 0 933.83 636.2">
  <defs>
    <style>
      .cls-1 {
        fill: #141819;
      }

      .cls-2 {
        fill: #c61ae6;
      }

      .cls-3 {
        fill: #ba8e6a;
      }

      .cls-4 {
        fill: #24272b;
      }

      .cls-5 {
        fill: #222629;
      }
    </style>
  </defs>
  <path class="cls-3" d="M605.28,52.11c-34.37-51.39-111.29-46.08-151.03-3.53-40.39,43.24-44.5,112.28-24.74,165.79,8.92,24.14,24.36,44.97,30.76,69.73-1.88.43-2.37-1.06-3.5-1.99-29.92-24.65-61.57-91.08-64.49-129.51-5.47-72.12,34.74-132.66,105.98-149,84.43-19.36,165.26,41.49,154,131-12.14,96.56-133.35,153.9-189.96,226.04-6.07,7.73-10.6,22.04-21.03,21.47,3.33-19.66,13.3-39.67,23.98-56.52,48.86-77.12,185.49-142.25,152.02-252.48-1.27-4.18-7.07-19.87-12-20v-1Z"/>
  <path class="cls-5" d="M371.33,448.07c-17.28-36.98-33.81-74.37-51.19-111.32-13.31-28.28-28.03-65.27-43.69-91.31-5.89-9.8-15.95-20.51-27.35-23.65-3.32-.91-12.1-.85-13.92-3.08-2.12-2.59-1.29-9.57,2.13-11.08l138.03-.07c3.57.26,3.86,7.66,2.51,9.61-.46.66-11.77,2.93-15.22,4.78-17.5,9.39-11.53,27.17-5.51,41.84,17.65,43,44.01,87.43,59.66,130.34,2.36,6.46,3.81,10.38-.48,16.5-5.64,8.03-26.63,25.6-35.11,31.89-1.62,1.2-8.12,6.77-9.85,5.56Z"/>
  <path class="cls-2" d="M291.28,593.11c.03.12-1.49.46-1.76,1.7-3.75,16.84,7.3,38.38,25.76,39.3-36.83,10.75-56.73-21.84-50.74-55.24,4.36-24.33,71.79-81.38,145.32-147.83,96.63-87.33,206.5-187.59,224.59-218.26,1.99-3.37,4.19-10.14,6.38-12.62,5.88-6.66,4.65,7.68,4.19,11.19-7.97,61.65-113.51,140.37-154.27,185.71-36,40.04-216,139.55-199.48,196.05Z"/>
  <path class="cls-4" d="M291.28,593.11c48.26,26.29,72.93-19.75,89.17-57.33,7.67-17.73,9.56-35.67,27.35-46.65l27.47-21.02c-14.02,34.08-27.85,70.48-45.82,102.67-13.12,23.5-43.92,64.85-74.17,63.33-18.46-.93-29.51-22.46-25.76-39.3.27-1.23,1.74-1.58,1.76-1.7Z"/>
  <path class="cls-1" d="M110.28,363.11c-1.8-59.03-.81-118.97,0-178v178Z"/>
  <path class="cls-5" d="M605.28,53.11v-1l-109,.5c-3.15,2.35-2.17,4.6-1,7.5.46,1.13.01,1.88,1.56,2.9,2.9,1.91,13.26,3.58,18.12,5.91,14.83,7.1,20.26,18.61,21.36,34.64,2.64,38.74-1.42,80.95.91,120.09.82,6.9,6.33,2.16,9.57-.52,14.49-11.99,39.3-43.45,47.67-60.33,13.63-27.5,10.74-41.26,9.76-70.15-.37-11-1.68-21.59,13.04-19.54-1.27-4.18-7.07-19.87-12-20Z"/>
  <path class="cls-5" d="M781.5,66.4c-18.89-5.39-47.32-12.23-66.67-13.33-21.42-1.22-44.02,1.01-65.55.05,3.87,26.77,25.93,19.96,45.49,21.01,67.91,3.65,123.55,45.56,147.26,108.74,46.12,122.89,4.16,304.07-150.75,309.25-26.26.88-52.72-.65-79,0-4.61-3.06-7.08-1.41-8-9.5-.24-55.68.34-111.37-.05-167.05-.02-3.49,2.4-9.02-2.43-10.44-10.84,10.49-21.18,21.51-32,32.02-7.69,7.47-25.54,20.44-29.7,29.3-7.58,16.12-3.04,60.17-3.78,80.22-.72,19.41-1.26,43.87-22.77,52.23-4.05,1.57-16.89,2.81-18.37,4.62-2.1,2.56-1.55,8.83,2.63,9.58,5,.9,12.92.79,17.94-.02,100.95-6.44,211.88,19.57,304.56-29.43,166.84-88.2,146.32-364.36-38.81-417.24Z"/>
  <path class="cls-4" d="M333.12,416.83c-1.16-4.04-9.69-3.54-12.29-.67-12.11,26.12-25.94,48.88-51.88,63.12-35.01,19.22-85.23,14.14-124.13,12.79-6.54-.23-24.87-.44-30.08-1.92-4.41-1.25-4.52-22.48-4.5-28.5.08-32.97,1.03-66.1.04-98.54-1.8-59.03-.81-118.97,0-178,.32-23.27.96-81.99,1-82,1.16-11.38,5.76-23.36,15.27-30.23,6.39-4.62,9.73-5.09,16.73-6.77,1.5-.36,1.89-.98,2-1,1.68-.37,3.07-.49,5-1,3.84-1.01,6.04-4.09,6-6-.03-1.1-2.63-6.37-6.58-6.92-44.07,2.55-97.1-2.99-143.03.85-1.97.17-2.1.59-3.38,1.07-3.09,1.16-3.92,3.58-2.82,7.3,1.17,3.95,14.15,4.94,18.86,7.17,15.51,7.32,23.06,23.47,23.95,40.05-3.23,111.96,4.32,226.36.06,338.04-.77,20.28-2.06,43.25-23.16,52.84-4.56,2.07-16.99,3.22-18.65,4.84-2.46,2.4-1.4,10.33,3.21,9.83l284.83-.28c27.71-12.26,29.22-36.28,35.21-61.79,1.3-5.52,9.17-31.4,8.35-34.27Z"/>
</svg>